<svg id="visual" viewBox="0 0 900 675" width="900" height="675" xmlns="http://www.w3.org/2000/svg" xmlns:xlink="http://www.w3.org/1999/xlink" version="1.1"><path d="M0 568L11.5 529.7C23 491.3 46 414.7 69 402.2C92 389.7 115 441.3 138.2 475.7C161.3 510 184.7 527 207.8 536.3C231 545.7 254 547.3 277 493.8C300 440.3 323 331.7 346 319.5C369 307.3 392 391.7 415.2 402.2C438.3 412.7 461.7 349.3 484.8 305.2C508 261 531 236 554 265.5C577 295 600 379 623 414.5C646 450 669 437 692.2 401.5C715.3 366 738.7 308 761.8 282.3C785 256.7 808 263.3 831 275.8C854 288.3 877 306.7 888.5 315.8L900 325" fill="none" stroke-linecap="round" stroke-linejoin="miter" stroke="#002233" stroke-width="40"></path></svg>