<svg id="visual" viewBox="0 0 900 675" width="900" height="675" xmlns="http://www.w3.org/2000/svg" xmlns:xlink="http://www.w3.org/1999/xlink" version="1.1"><path d="M0 389L13.7 405.2C27.3 421.3 54.7 453.7 82 471.5C109.3 489.3 136.7 492.7 163.8 452.7C191 412.7 218 329.3 245.2 306.8C272.3 284.3 299.7 322.7 327 334.2C354.3 345.7 381.7 330.3 409 313.2C436.3 296 463.7 277 491 296.7C518.3 316.3 545.7 374.7 573 361.7C600.3 348.7 627.7 264.3 654.8 263.5C682 262.7 709 345.3 736.2 366.7C763.3 388 790.7 348 818 307.3C845.3 266.7 872.7 225.3 886.3 204.7L900 184" fill="none" stroke-linecap="round" stroke-linejoin="miter" stroke="#002233" stroke-width="40"></path></svg>