<svg id="visual" viewBox="0 0 900 675" width="900" height="675" xmlns="http://www.w3.org/2000/svg" xmlns:xlink="http://www.w3.org/1999/xlink" version="1.1"><path d="M0 505L11.5 446.5C23 388 46 271 69 266.5C92 262 115 370 138.2 400C161.3 430 184.7 382 207.8 373.8C231 365.7 254 397.3 277 383.8C300 370.3 323 311.7 346 281.5C369 251.3 392 249.7 415.2 251.2C438.3 252.7 461.7 257.3 484.8 233C508 208.7 531 155.3 554 144.7C577 134 600 166 623 229.2C646 292.3 669 386.7 692.2 373.2C715.3 359.7 738.7 238.3 761.8 183.2C785 128 808 139 831 161.7C854 184.3 877 218.7 888.5 235.8L900 253" fill="none" stroke-linecap="round" stroke-linejoin="miter" stroke="#9c9c9c" stroke-width="40"></path></svg>