<svg width="600" height="186" viewBox="0 0 600 186" fill="none" xmlns="http://www.w3.org/2000/svg">
    <rect width="600" height="186" rx="10" fill="white"/>
    <rect x="316" y="31" width="246" height="124" rx="20" fill="black"/>
    <path d="M99.72 66.064C99.72 63.5893 100.275 61.456 101.384 59.664C102.579 57.7867 104.328 56.848 106.632 56.848C108.595 56.848 110.344 57.232 111.88 58C113.416 58.768 114.184 60.048 114.184 61.84C114.184 65.3387 114.013 70.2453 113.672 76.56C113.331 82.704 113.16 87.2693 113.16 90.256C113.16 94.9493 113.331 101.221 113.672 109.072C114.013 116.581 114.184 122.085 114.184 125.584C114.184 128.4 114.141 130.491 114.056 131.856C114.056 133.221 113.288 134.587 111.752 135.952C110.301 137.232 108.04 137.872 104.968 137.872C103.347 137.872 101.939 137.616 100.744 137.104C99.6347 136.507 98.8667 135.867 98.44 135.184C94.4293 130.32 88.584 122.043 80.904 110.352C72.2853 97.296 65.2453 87.312 59.784 80.4C60.4667 86.544 60.808 94.0533 60.808 102.928C60.808 106.853 60.7227 111.973 60.552 118.288C60.4667 124.517 60.296 128.613 60.04 130.576C59.6987 133.051 58.9307 134.971 57.736 136.336C56.6267 137.616 54.8347 138.256 52.36 138.256C50.4827 138.256 49.0747 137.744 48.136 136.72C47.2827 135.611 46.7707 133.733 46.6 131.088C46.5147 127.589 46.728 122.341 47.24 115.344C47.3253 114.235 47.4533 112.315 47.624 109.584C47.7947 106.853 47.88 104.421 47.88 102.288C47.88 96.4 47.5813 89.6587 46.984 82.064C46.472 73.7013 46.216 67.5147 46.216 63.504C46.216 61.456 46.9413 59.8773 48.392 58.768C49.928 57.6587 51.6773 57.104 53.64 57.104C55.3467 57.104 57.1387 57.5307 59.016 58.384C66.3547 67.6 76.296 81.3387 88.84 99.6L100.872 118.032C100.957 116.667 101 114.747 101 112.272C101 107.92 100.915 103.227 100.744 98.192C100.573 93.1573 100.445 89.744 100.36 87.952C99.9333 79.6747 99.72 72.3787 99.72 66.064ZM180.847 96.912C181.53 98.1067 182.084 99.856 182.511 102.16C182.938 104.379 183.151 106.384 183.151 108.176C183.151 111.504 182.426 116.24 180.975 122.384C175.087 133.136 166.383 138.512 154.863 138.512C150.596 138.512 146.244 137.104 141.807 134.288C137.37 131.472 134.298 128.229 132.591 124.56C130.287 117.221 129.135 112.571 129.135 110.608C129.135 107.195 129.86 103.568 131.311 99.728C132.847 95.888 134.767 92.56 137.071 89.744C138.522 87.7813 141.124 86.1173 144.879 84.752C148.634 83.3013 152.047 82.576 155.119 82.576C161.092 82.576 166.17 83.728 170.351 86.032C174.532 88.2507 178.031 91.8773 180.847 96.912ZM169.711 117.52C170.138 116.411 170.351 113.552 170.351 108.944C170.351 106.469 169.882 104.037 168.943 101.648C168.09 99.2587 166.81 97.2107 165.103 95.504C164.932 95.3333 164.463 95.0773 163.695 94.736C162.927 94.3093 161.86 93.9253 160.495 93.584C159.215 93.1573 157.722 92.944 156.015 92.944C151.236 92.944 147.738 94.864 145.519 98.704C143.3 102.544 142.191 106.896 142.191 111.76C142.191 112.613 142.404 114.235 142.831 116.624C143.343 119.013 143.77 120.507 144.111 121.104C144.367 121.701 145.007 122.555 146.031 123.664C147.14 124.688 148.463 125.627 149.999 126.48C151.62 127.248 153.284 127.632 154.991 127.632C158.831 127.632 161.903 126.736 164.207 124.944C166.511 123.067 168.346 120.592 169.711 117.52ZM195.034 93.712C193.839 93.5413 192.858 93.0293 192.09 92.176C191.407 91.3227 191.066 90.2987 191.066 89.104C191.066 88.5067 191.194 87.8667 191.45 87.184C191.791 86.5013 192.261 85.904 192.858 85.392C193.967 84.2827 196.954 83.728 201.818 83.728C202.501 80.4 202.842 77.0293 202.842 73.616C202.842 72.336 202.799 71.2267 202.714 70.288C202.629 69.3493 202.586 68.624 202.586 68.112C202.586 66.2347 203.269 64.8267 204.634 63.888C206.085 62.9493 207.706 62.48 209.498 62.48C211.717 62.48 213.21 63.0347 213.978 64.144C214.831 65.2533 215.258 67.3013 215.258 70.288C215.258 74.7253 214.874 79.0773 214.106 83.344C215.471 83.344 217.349 83.2587 219.738 83.088C222.981 82.9173 225.327 82.832 226.778 82.832C228.229 82.832 229.466 83.216 230.49 83.984C231.599 84.6667 232.154 85.648 232.154 86.928C232.154 90.256 230.661 92.2187 227.674 92.816C224.517 93.584 219.61 94.0533 212.954 94.224C212.698 97.552 212.57 101.179 212.57 105.104C212.57 111.248 212.954 116.283 213.722 120.208C214.234 122.939 215.087 124.944 216.282 126.224C217.562 127.419 219.439 128.016 221.914 128.016C223.365 128.016 224.858 127.632 226.394 126.864C227.418 126.267 228.357 125.968 229.21 125.968C230.405 125.968 231.258 126.352 231.77 127.12C232.367 127.888 232.666 128.912 232.666 130.192C232.666 132.581 231.386 134.587 228.826 136.208C226.266 137.744 222.981 138.512 218.97 138.512C216.495 138.512 213.978 137.915 211.418 136.72C208.943 135.525 206.853 134.032 205.146 132.24C204.89 131.984 204.421 131.003 203.738 129.296C203.055 127.589 202.458 125.755 201.946 123.792C201.093 119.781 200.666 114.149 200.666 106.896C200.666 103.739 200.837 99.5147 201.178 94.224L195.034 93.712ZM241.879 108.688C241.879 103.483 243.031 99.1733 245.335 95.76C247.639 92.2613 250.839 88.976 254.935 85.904C256.13 85.0507 258.135 84.3253 260.951 83.728C263.767 83.0453 266.242 82.704 268.375 82.704C270.935 82.704 273.623 83.2587 276.439 84.368C279.34 85.392 281.687 86.5867 283.479 87.952C286.636 90.256 288.812 92.944 290.007 96.016C291.202 99.0027 291.799 102.587 291.799 106.768C291.799 108.56 290.775 110.309 288.727 112.016C286.764 113.637 284.631 114.448 282.327 114.448L277.463 114.32C274.988 114.32 271.447 114.405 266.839 114.576L264.151 114.704C262.274 114.875 260.866 114.96 259.927 114.96C258.562 114.96 256.684 114.789 254.295 114.448C254.636 118.459 256.13 121.616 258.775 123.92C261.42 126.139 264.279 127.248 267.351 127.248C272.727 127.248 276.482 126.181 278.615 124.048C280.407 122.768 281.602 121.957 282.199 121.616C282.796 121.275 283.735 121.104 285.015 121.104C286.38 121.104 287.575 121.744 288.599 123.024C289.623 124.304 290.135 125.584 290.135 126.864C290.135 128.315 289.239 129.808 287.447 131.344C285.74 132.795 283.394 134.331 280.407 135.952C278.786 136.635 276.567 137.232 273.751 137.744C270.935 138.256 268.588 138.512 266.711 138.512C263.724 138.512 260.396 137.659 256.727 135.952C253.058 134.16 250.327 132.197 248.535 130.064C246.743 127.931 245.164 124.901 243.799 120.976C242.519 117.051 241.879 112.955 241.879 108.688ZM267.351 105.232C273.41 105.232 277.847 105.019 280.663 104.592C280.492 102.117 279.724 100.112 278.359 98.576C276.994 96.9547 275.116 95.5893 272.727 94.48C271.959 94.1387 271.276 93.8827 270.679 93.712C270.082 93.5413 269.399 93.456 268.631 93.456C264.706 93.456 261.378 94.5227 258.647 96.656C256.002 98.7893 254.423 101.52 253.911 104.848C258.178 105.104 262.658 105.232 267.351 105.232Z" fill="black"/>
    <path d="M391.664 92.176C391.579 90.8107 391.536 88.7627 391.536 86.032V81.168C391.536 77.9253 391.451 75.4933 391.28 73.872C391.109 72.5067 391.024 68.9653 391.024 63.248C391.024 61.2 391.621 59.6213 392.816 58.512C394.096 57.3173 395.803 56.72 397.936 56.72C400.667 56.72 402.501 57.3173 403.44 58.512C404.379 59.7067 404.848 61.6693 404.848 64.4V69.264L404.72 83.344C404.635 86.0747 404.592 90.1707 404.592 95.632L404.72 106.128C404.805 107.749 404.848 110.011 404.848 112.912C404.848 115.216 404.933 118.501 405.104 122.768C405.275 126.693 405.36 129.637 405.36 131.6C405.36 133.221 404.891 134.715 403.952 136.08C403.099 137.445 401.904 138.128 400.368 138.128C394.395 138.128 391.408 136.123 391.408 132.112C391.408 129.893 391.493 127.419 391.664 124.688C391.835 122.725 391.92 119.739 391.92 115.728C391.92 112.912 391.835 108.859 391.664 103.568C387.653 103.909 380.741 104.08 370.928 104.08C364.784 104.08 360.005 104.08 356.592 104.08C353.179 103.995 350.704 103.781 349.168 103.44L349.04 118.16C349.04 119.099 349.253 121.616 349.68 125.712C350.107 128.443 350.32 130.832 350.32 132.88C350.32 134.16 349.552 135.397 348.016 136.592C346.565 137.701 345.2 138.256 343.92 138.256C340.848 138.256 338.757 137.531 337.648 136.08C336.539 134.544 335.984 132.24 335.984 129.168L335.856 119.056C335.771 117.861 335.728 116.197 335.728 114.064C335.728 110.907 335.643 106.597 335.472 101.136C335.301 96.1867 335.216 92.6027 335.216 90.384C335.216 87.056 335.301 82.4053 335.472 76.432C335.643 70.8 335.728 66.6187 335.728 63.888C335.728 61.1573 336.411 59.3227 337.776 58.384C339.141 57.4453 340.677 56.976 342.384 56.976C347.163 56.976 349.552 58.5547 349.552 61.712C349.552 67.344 349.424 72.72 349.168 77.84C348.997 84.3253 348.912 89.0613 348.912 92.048C351.387 92.6453 353.989 93.0293 356.72 93.2C359.451 93.3707 363.291 93.456 368.24 93.456C378.309 93.456 386.117 93.0293 391.664 92.176ZM418.977 94.864C418.294 94.864 417.654 94.608 417.057 94.096C416.545 93.4987 416.289 92.816 416.289 92.048C416.289 90.0853 417.142 88.2507 418.849 86.544C419.361 86.288 420.385 85.8613 421.921 85.264C423.457 84.6667 424.822 84.368 426.017 84.368C429.26 84.368 431.905 85.264 433.953 87.056C436.001 88.7627 437.025 91.2373 437.025 94.48C437.025 95.4187 436.854 97.424 436.513 100.496C436.172 104.08 436.001 106.853 436.001 108.816C436.001 114.789 436.812 119.611 438.433 123.28C439.03 124.475 439.969 125.413 441.249 126.096C442.529 126.779 443.681 127.12 444.705 127.12C447.18 127.12 449.185 126.693 450.721 125.84C452.257 124.987 453.921 123.621 455.713 121.744C457.505 119.867 458.657 117.733 459.169 115.344C459.766 112.955 460.193 109.669 460.449 105.488C460.62 102.757 460.79 100.752 460.961 99.472C461.388 95.376 461.601 91.8773 461.601 88.976C461.601 87.0987 462.113 85.5627 463.137 84.368C464.161 83.088 465.569 82.448 467.361 82.448C468.385 82.448 469.537 82.7893 470.817 83.472C472.182 84.0693 473.078 84.7947 473.505 85.648C474.017 86.5013 474.273 87.9093 474.273 89.872C474.273 90.896 474.145 91.8773 473.889 92.816C473.292 94.9493 472.993 97.5093 472.993 100.496L473.121 107.152C473.121 113.211 473.548 117.691 474.401 120.592C474.828 121.957 475.425 123.365 476.193 124.816C476.961 126.181 477.686 127.333 478.369 128.272C480.076 130.149 481.185 131.472 481.697 132.24C482.209 132.923 482.465 133.605 482.465 134.288C482.465 135.312 481.953 136.293 480.929 137.232C479.99 138.085 478.966 138.512 477.857 138.512C474.7 138.512 471.969 137.445 469.665 135.312C467.361 133.179 465.654 130.405 464.545 126.992C461.644 130.32 458.956 133.008 456.481 135.056C454.774 136.251 452.684 137.147 450.209 137.744C447.734 138.256 445.26 138.512 442.785 138.512C439.457 138.512 436.086 137.147 432.673 134.416C429.26 131.685 426.956 128.528 425.761 124.944C425.676 124.773 425.42 124.091 424.993 122.896C424.652 121.701 424.481 119.909 424.481 117.52C424.481 114.363 424.652 110.395 424.993 105.616C425.249 102.544 425.377 99.728 425.377 97.168C425.377 96.4 425.078 95.76 424.481 95.248C423.969 94.736 423.372 94.48 422.689 94.48C422.177 94.48 421.58 94.5653 420.897 94.736C420.3 94.8213 419.66 94.864 418.977 94.864ZM495.231 114.96C495.231 110.181 495.274 106.555 495.359 104.08L495.487 91.92C495.487 86.9707 495.359 81.552 495.103 75.664C495.018 73.872 494.719 71.3973 494.207 68.24C493.524 63.4613 493.183 59.8773 493.183 57.488C493.183 53.5627 495.146 51.6 499.071 51.6C501.546 51.6 503.295 52.2827 504.319 53.648C505.428 54.928 506.196 56.976 506.623 59.792C507.476 65.68 507.903 72.592 507.903 80.528C507.903 82.9173 507.818 86.5013 507.647 91.28C509.268 88.72 511.359 86.7147 513.919 85.264C516.564 83.8133 519.167 83.088 521.727 83.088C529.151 83.088 535.551 86.16 540.927 92.304C542.378 94.4373 543.658 96.9973 544.767 99.984C545.962 102.885 546.559 105.403 546.559 107.536C546.559 111.291 546.132 114.747 545.279 117.904C544.511 121.061 543.103 124.133 541.055 127.12C539.007 130.107 536.404 132.539 533.247 134.416C530.175 136.293 526.591 137.232 522.495 137.232C518.911 137.232 515.668 136.507 512.767 135.056C509.951 133.605 507.69 131.685 505.983 129.296C505.556 131.429 504.618 133.563 503.167 135.696C501.716 137.744 500.052 138.768 498.175 138.768C496.639 138.768 495.359 138.384 494.335 137.616C493.311 136.763 492.799 135.525 492.799 133.904C492.799 132.709 493.055 131.216 493.567 129.424C494.079 126.949 494.463 124.688 494.719 122.64C495.06 120.507 495.231 117.947 495.231 114.96ZM519.295 126.608C523.476 126.608 526.975 125.157 529.791 122.256C532.607 119.269 534.015 115.259 534.015 110.224C534.015 105.616 532.778 101.648 530.303 98.32C529.45 97.2107 528.212 96.3147 526.591 95.632C525.055 94.9493 523.519 94.608 521.983 94.608C518.399 94.608 515.37 95.6747 512.895 97.808C510.42 99.856 509.012 102.715 508.671 106.384C508.33 111.333 508.159 115.6 508.159 119.184C509.183 121.147 510.719 122.896 512.767 124.432C514.9 125.883 517.076 126.608 519.295 126.608Z" fill="#FF7A00"/>
</svg>
